<svg xmlns="http://www.w3.org/2000/svg" width="32" height="32" viewBox="0 0 32 32" fill="none" stroke="#c5c8c6" stroke-width="1.5" stroke-linecap="round" stroke-linejoin="round">
  <circle cx="16" cy="14" r="10"/>
  <path d="M10 12c0-1 1-3 3-3s3 2 3 3"/>
  <path d="M16 12c0-1 1-3 3-3s3 2 3 3"/>
  <circle cx="12" cy="13" r="1.5" fill="#c5c8c6" stroke="none"/>
  <circle cx="20" cy="13" r="1.5" fill="#c5c8c6" stroke="none"/>
  <path d="M12 18c0 2 2 3 4 3s4-1 4-3"/>
  <path d="M8 24l-2 4M24 24l2 4M13 24v4M19 24v4"/>
</svg>
